<svg id="Layer_1" data-name="Layer 1" xmlns="http://www.w3.org/2000/svg" xmlns:xlink="http://www.w3.org/1999/xlink" viewBox="0 0 96 96"><defs><style>.cls-1{fill:url(#radial-gradient);}.cls-2{fill:#fff;stroke:#fff;stroke-miterlimit:10;stroke-width:0.283px;}</style><radialGradient id="radial-gradient" cx="48" cy="50" r="48" gradientTransform="matrix(1, 0, 0, -1, 0, 98)" gradientUnits="userSpaceOnUse"><stop offset="0" stop-color="#19023c"/><stop offset="0.626" stop-color="#19023c"/><stop offset="1" stop-color="#0f0c29"/></radialGradient></defs><rect class="cls-1" width="96" height="96"/><path class="cls-2" d="M50.409,37.253l-8-13.854a3.376,3.376,0,0,0-5.847,0l-8,13.854c2.022.95,1.5-1.118,10.923,2.438C44.21,41.472,48.387,38.2,50.409,37.253Z"/><path class="cls-2" d="M50.885,38.576c-2.11.991-6.449,4.349-11.4,2.543-6.975-2.543-9.289-1.552-11.4-2.543L10.741,68.621a3.523,3.523,0,0,0,3.052,5.285h57.49Z"/><path class="cls-2" d="M54.274,41.684l-2.627-4.553,4.965-8.6a3.059,3.059,0,0,1,5.3,0l7.247,12.552c-1.832.86-5.617,3.822-9.9,2.208A43.074,43.074,0,0,0,54.274,41.684Z"/><path class="cls-2" d="M73.084,74.289h9.455A3.193,3.193,0,0,0,85.3,69.5L69.588,42.281c-1.911.9-5.843,3.94-10.327,2.3a33.168,33.168,0,0,0-4.009-1.206l17.832,30.91"/></svg>