<svg xmlns="http://www.w3.org/2000/svg" viewBox="0 0 118.963 82.962"><defs><style>.cls-1{fill:#fff;stroke:#fff;stroke-miterlimit:10;stroke-width:0.283px;}</style></defs><g id="Layer_2" data-name="Layer 2"><g id="Layer_1-2" data-name="Layer 1"><path class="cls-1" d="M63.27,24.582,50.692,2.8a5.31,5.31,0,0,0-9.2,0L28.919,24.582c3.179,1.493,2.354-1.758,17.175,3.832C53.521,31.216,60.091,26.075,63.27,24.582Z"/><path class="cls-1" d="M64.019,26.661c-3.318,1.559-10.142,6.839-17.925,4-10.967-4-14.607-2.441-17.924-4L.892,73.907a5.541,5.541,0,0,0,4.8,8.311h90.4Z"/><path class="cls-1" d="M67.409,34.226q.141.053.282.1"/><path class="cls-1" d="M69.347,31.55l-4.13-7.16,7.808-13.524a4.809,4.809,0,0,1,8.33,0L92.75,30.6c-2.88,1.353-8.831,6.011-15.56,3.473A67.423,67.423,0,0,0,69.347,31.55Z"/><path class="cls-1" d="M98.926,82.82H113.8a5.019,5.019,0,0,0,4.347-7.529l-24.713-42.8c-3.006,1.412-9.188,6.2-16.239,3.624a52.233,52.233,0,0,0-6.3-1.9l28.041,48.6"/></g></g></svg>